<?xml version="1.0"?>
<svg xmlns="http://www.w3.org/2000/svg" xmlns:xlink="http://www.w3.org/1999/xlink" version="1.1" viewBox="0 0 224 224" width="30px" height="30px"><g fill="none" fill-rule="nonzero" stroke="none" stroke-width="1" stroke-linecap="butt" stroke-linejoin="miter" stroke-miterlimit="10" stroke-dasharray="" stroke-dashoffset="0" font-family="none" font-weight="none" font-size="none" text-anchor="none" style="mix-blend-mode: normal"><path d="M0,224v-224h224v224z" fill="none"/><g id="Layer_1"><g fill="#2ecc71"><g><g><path d="M23.6376,164.0688l-0.5824,-1.0136c-9.0048,-15.6016 -13.7704,-33.4264 -13.7648,-51.548c0.0224,-56.8512 46.2952,-103.1072 103.1464,-103.1072c27.5856,0.0112 53.4968,10.7464 72.968,30.2344c19.4712,19.488 30.1952,45.3992 30.1952,72.9568c-0.028,56.8568 -46.3008,103.1184 -103.152,103.1184c-17.2592,-0.0112 -34.3056,-4.3456 -49.3416,-12.544l-0.9744,-0.5376l-52.556,13.776z"/><path d="M112.4368,11.2v0c26.8296,0.0056 52.0408,10.4552 70.9856,29.4168c18.9448,18.9616 29.3776,44.1672 29.3776,70.9744c-0.028,55.3168 -45.0408,100.3184 -100.3912,100.3184c-16.7496,-0.0056 -33.3312,-4.228 -47.9584,-12.208l-1.9544,-1.064l-2.1504,0.5656l-46.7824,12.264l12.4656,-45.5336l0.616,-2.2568l-1.1648,-2.0216c-8.7696,-15.1816 -13.4008,-32.5248 -13.3896,-50.148c0.0224,-55.3056 45.0408,-100.3072 100.3464,-100.3072M112.4368,5.6c-58.3912,0 -105.924,47.516 -105.952,105.9072c-0.0112,18.6648 4.8664,36.8928 14.14,52.948l-15.0248,54.8912l56.168,-14.728c15.4728,8.4392 32.9,12.88 50.6352,12.8912h0.0448c58.3912,0 105.924,-47.516 105.952,-105.9184c0,-28.3024 -11.0096,-54.9192 -31.0128,-74.9392c-20.0032,-20.0144 -46.6032,-31.0408 -74.9504,-31.052z"/></g></g></g><path d="M111.972,196c-14.0224,-0.0056 -27.8992,-3.5392 -40.1296,-10.2088l-8.0248,-4.3792l-8.8424,2.3184l-18.1496,4.76l4.648,-16.968l2.5368,-9.2736l-4.8104,-8.3328c-7.3304,-12.6952 -11.2056,-27.2048 -11.2,-41.9552c0.0224,-46.2952 37.6992,-83.9552 83.9888,-83.9608c22.4616,0.0056 43.5624,8.7528 59.416,24.6232c15.8648,15.8704 24.5952,36.9712 24.5952,59.4048c-0.0224,46.3008 -37.6992,83.972 -84.028,83.972z" fill="#79ba7e"/><path d="M158.368,132.6528c-2.52,-1.2544 -14.896,-7.3528 -17.1976,-8.1872c-2.3128,-0.8456 -3.9872,-1.2544 -5.6672,1.2544c-1.68,2.52 -6.5016,8.1872 -7.9688,9.8616c-1.4672,1.68 -2.9344,1.8872 -5.4544,0.6328c-2.52,-1.2544 -10.6344,-3.92 -20.244,-12.4936c-7.4872,-6.6696 -12.5384,-14.9128 -14.0056,-17.4328c-1.4672,-2.52 -0.1624,-3.8808 1.1032,-5.1352c1.1312,-1.1312 2.52,-2.94 3.7744,-4.4072c1.2544,-1.4672 1.68,-2.52 2.52,-4.2c0.8456,-1.68 0.42,-3.1528 -0.2128,-4.4072c-0.6328,-1.2544 -5.6672,-13.6472 -7.7672,-18.6816c-2.0384,-4.9056 -4.1216,-4.2392 -5.6672,-4.3176c-1.4672,-0.0784 -3.1472,-0.084 -4.8216,-0.084c-1.68,0 -4.4072,0.6328 -6.7088,3.1528c-2.3016,2.52 -8.8088,8.6072 -8.8088,20.9944c0,12.3872 9.0216,24.36 10.276,26.0344c1.2544,1.68 17.7464,27.0984 43.008,38.0016c6.0032,2.5872 10.7016,4.1384 14.3472,5.3032c6.0256,1.9152 11.5192,1.6464 15.8592,0.9968c4.8384,-0.7224 14.896,-6.0872 16.9904,-11.9616c2.1,-5.8744 2.1,-10.92 1.4672,-11.9616c-0.6216,-1.0752 -2.296,-1.708 -4.8216,-2.9624z" fill="#ffffff"/></g></g></svg>
